<svg width="156" height="156" viewBox="0 0 156 156" fill="none" xmlns="http://www.w3.org/2000/svg">
<path fill-rule="evenodd" clip-rule="evenodd" d="M87.3976 5C87.3976 2.23858 85.159 0 82.3976 0H73.6024C70.841 0 68.6024 2.23858 68.6024 5V42.435C68.6024 46.8895 63.2167 49.1203 60.0669 45.9705L33.251 19.1546C31.2983 17.202 28.1325 17.202 26.1799 19.1546L19.9608 25.3737C18.0081 27.3263 18.0081 30.4922 19.9608 32.4448L47.5829 60.0669C50.7327 63.2167 48.5018 68.6024 44.0473 68.6024H5C2.23858 68.6024 0 70.841 0 73.6024V82.3976C0 85.159 2.23858 87.3976 5 87.3976H42.435C46.8895 87.3976 49.1203 92.7833 45.9705 95.9331L19.5114 122.392C17.5588 124.345 17.5588 127.511 19.5114 129.463L25.7306 135.682C27.6832 137.635 30.849 137.635 32.8016 135.682L60.0669 108.417C63.2167 105.267 68.6024 107.498 68.6024 111.953V151C68.6024 153.761 70.841 156 73.6024 156H82.3976C85.159 156 87.3976 153.761 87.3976 151V111.953C87.3976 107.498 92.7833 105.267 95.9331 108.417L123.198 135.682C125.151 137.635 128.317 137.635 130.269 135.682L136.489 129.463C138.441 127.511 138.441 124.345 136.489 122.392L110.03 95.9331C106.88 92.7833 109.111 87.3976 113.565 87.3976H151C153.761 87.3976 156 85.159 156 82.3976V73.6024C156 70.841 153.761 68.6024 151 68.6024H111.953C107.498 68.6024 105.267 63.2167 108.417 60.0669L136.039 32.4448C137.992 30.4922 137.992 27.3263 136.039 25.3737L129.82 19.1546C127.867 17.202 124.702 17.202 122.749 19.1546L95.9331 45.9705C92.7833 49.1203 87.3976 46.8895 87.3976 42.4349V5Z" fill="#1A1A1A"/>
</svg>
