<svg width="166" height="166" viewBox="0 0 166 166" fill="none" xmlns="http://www.w3.org/2000/svg">
<path fill-rule="evenodd" clip-rule="evenodd" d="M0 83V166H83H166V83V0H83H0V83ZM32.192 25.3496C35.5147 32.2541 38.2681 37.9015 38.3104 37.8993C38.3528 37.8971 41.1088 32.248 44.4347 25.3456L50.482 12.7958L57.196 12.7599L63.91 12.724V31.8845V51.045H59.2074H54.5047L54.4694 37.4388L54.4342 23.8328L48.5034 35.3638L42.5726 46.895H38.3152H34.0577L28.1301 35.3659L22.2025 23.8366L22.1672 37.4409L22.132 51.045H17.4293H12.7267V31.8845V12.724L19.4386 12.7599L26.1505 12.7958L32.192 25.3496ZM153.273 16.6V20.4733H144.973H136.673V35.7592V51.045H131.97H127.267V35.7592V20.4733H118.898H110.528V16.6V12.7267H131.901H153.273V16.6ZM137.503 114.327C144.335 115.056 148.482 117.074 151.058 120.924C151.499 121.582 152.058 122.636 152.301 123.267C152.776 124.498 153.265 126.501 153.27 127.232L153.273 127.682H148.588H143.902L143.809 127.101C143.673 126.247 142.978 124.89 142.309 124.167C140.599 122.322 137.784 121.579 132.46 121.565C127.508 121.552 124.648 122.383 122.556 124.442C120.428 126.537 119.81 129.145 119.984 135.29C120.072 138.37 120.241 139.609 120.767 141.009C121.44 142.798 122.936 144.399 124.746 145.267C127.333 146.507 132.016 146.932 136.673 146.351C140.68 145.851 142.93 144.244 143.736 141.308L143.964 140.478L148.619 140.441L153.273 140.405L153.27 140.925C153.266 141.731 152.781 143.736 152.303 144.931C150.6 149.187 146.783 152.091 141.369 153.25C138.577 153.847 136.653 154.017 132.593 154.025C128.521 154.032 127.341 153.932 124.569 153.34C120.602 152.494 118.038 151.223 115.682 148.938C112.141 145.501 110.64 141.042 110.645 133.976C110.651 125.546 113.192 120.112 118.586 116.992C120.973 115.611 124.478 114.618 128.373 114.219C129.774 114.075 135.814 114.147 137.503 114.327Z" fill="#1F1F22"/>
</svg>
