<svg width="167" height="168" viewBox="0 0 167 168" fill="none" xmlns="http://www.w3.org/2000/svg">
<path d="M149.693 33.2148C153.63 38.301 156.993 43.7973 159.618 49.7038L83.9888 105.487L52.4083 85.6349V61.8449L83.9888 81.6973L149.693 33.2148Z" fill="#1F1F22"/>
<path d="M20.1708 83.9884C20.1708 82.922 20.1708 81.8555 20.2529 80.7891L1.05845 79.8047C0.97642 81.1993 0.97644 82.5938 0.97644 83.9884C0.97644 106.958 10.2455 127.713 25.3385 142.725L38.9551 129.107C27.3072 117.541 20.1708 101.626 20.1708 83.9884Z" fill="#1F1F22"/>
<path d="M83.9875 20.1805C85.0539 20.1805 86.1202 20.1805 87.1866 20.2625L88.1709 1.06641C86.7765 0.98438 85.382 0.984375 83.9875 0.984375C61.0199 0.984375 40.267 10.2543 25.256 25.3486L38.8725 38.9664C50.4384 27.3175 66.3517 20.1805 83.9875 20.1805Z" fill="#1F1F22"/>
<path d="M83.9883 147.903C82.922 147.903 81.8556 147.903 80.7893 147.821L79.8049 167.017C81.1994 167.099 82.5939 167.099 83.9883 167.099C106.956 167.099 127.709 157.829 142.72 142.735L129.103 129.117C117.537 140.684 101.624 147.903 83.9883 147.903Z" fill="#1F1F22"/>
<path d="M119.998 31.2512L136.157 19.3562C121.885 7.87137 103.757 0.898438 83.988 0.898438V20.0945C97.3585 20.1765 109.745 24.2783 119.998 31.2512Z" fill="#1F1F22"/>
<path d="M167.001 84.0045C167.001 78.9183 166.509 73.9143 165.688 69.1562L147.806 82.3638C147.806 82.938 147.806 83.5123 147.806 84.0865C147.806 102.872 139.686 119.689 126.807 131.42L139.686 145.694C156.501 130.354 167.001 108.451 167.001 84.0045Z" fill="#1F1F22"/>
<path d="M83.9887 147.907C65.2045 147.907 48.3889 139.786 36.659 126.906L22.3862 139.786C37.5613 156.603 59.5446 167.103 83.9887 167.103V147.907Z" fill="#1F1F22"/>
<path d="M41.1698 36.6568L28.2915 22.3828C11.4759 37.5592 0.97644 59.5445 0.97644 83.9907H20.1708C20.1708 65.2048 28.2915 48.3878 41.1698 36.6568Z" fill="#1F1F22"/>
</svg>
