<svg width="166" height="166" viewBox="0 0 166 166" fill="none" xmlns="http://www.w3.org/2000/svg">
<path d="M46.1519 58.8105C24.5996 54.0675 5.08524 59.4606 2.56439 70.8556C0.0435492 82.2505 15.4706 95.3333 37.0229 100.076C58.5753 104.819 78.0896 99.4262 80.6105 88.0313C83.1313 76.6363 67.7043 63.5536 46.1519 58.8105ZM74.7878 92.6211C70.5287 96.4624 61.3244 98.1893 55.4774 98.4238C49.4909 98.6634 42.7995 98.2374 36.9399 96.1354C33.6964 94.9725 28.1451 92.6825 28.0508 88.4653C28.3783 84.1208 34.9488 86.7285 37.163 87.2695C42.2575 88.5135 51.6419 90.6504 56.2633 87.0769C60.6016 83.7213 48.7484 84.571 48.0986 84.6097C38.4668 85.1985 27.9915 85.8231 18.6636 82.725C14.3559 81.2934 3.63237 75.992 5.94345 69.9935C7.529 65.8799 14.1088 62.5224 18.0742 61.7306C25.9627 60.1542 30.3299 60.1059 36.4633 60.7468C40.8082 61.2872 45.0073 62.1077 49.2414 63.2122C51.5883 63.9795 54.2015 65.9363 54.2448 68.6621C53.7779 72.862 49.3685 73.4857 46.1465 73.4944C40.6921 73.5095 33.9822 71.5544 29.1443 68.5936C27.2555 67.4371 23.5174 66.4725 22.9315 69.5459C22.2402 73.1642 29.2981 75.4057 31.4889 75.7881C40.9608 77.4376 51.2225 73.5138 61.2703 75.0853C72.986 76.9177 82.1829 85.9516 74.7863 92.6221L74.7878 92.6211Z" fill="#1A1A1A"/>
<path d="M74.7878 92.6211C70.5287 96.4624 61.3244 98.1893 55.4774 98.4238C49.4909 98.6634 42.7995 98.2374 36.9399 96.1354C33.6964 94.9725 28.1451 92.6825 28.0508 88.4653C28.3783 84.1208 34.9488 86.7285 37.163 87.2695C42.2575 88.5135 51.6419 90.6504 56.2633 87.0769C60.6016 83.7213 48.7484 84.571 48.0986 84.6097C38.4668 85.1985 27.9915 85.8231 18.6636 82.725C14.3559 81.2934 3.63237 75.992 5.94345 69.9935C7.529 65.8799 14.1088 62.5224 18.0742 61.7306C25.9627 60.1542 30.3299 60.1059 36.4633 60.7468C40.8082 61.2872 45.0073 62.1077 49.2414 63.2122C51.5883 63.9795 54.2015 65.9363 54.2448 68.6621C53.7779 72.862 49.3685 73.4857 46.1465 73.4944C40.6921 73.5095 33.9822 71.5544 29.1443 68.5936C27.2555 67.4371 23.5174 66.4725 22.9315 69.5459C22.2402 73.1642 29.2981 75.4057 31.4889 75.7881C40.9608 77.4376 51.2225 73.5138 61.2703 75.0853C72.986 76.9177 82.1829 85.9516 74.7863 92.6221L74.7878 92.6211Z" fill="#1A1A1A"/>
<path d="M93.9146 45.1484C86.155 24.4067 71.0242 10.8843 60.1188 14.9462C49.2137 19.0092 46.6634 39.1167 54.4234 59.8597C62.183 80.6015 77.315 94.1234 88.2204 90.0616C99.1258 85.9998 101.676 65.891 93.9161 45.1493L93.9146 45.1484ZM91.7679 76.7081C86.7537 75.7414 81.9254 73.694 77.1998 71.8202C76.1582 71.3986 75.8726 72.8168 76.7945 73.8048C76.8115 73.823 76.8285 73.8413 76.8454 73.8596C79.2171 76.4079 81.5881 78.9554 83.9039 81.5548C84.9272 82.6234 87.1392 87.3311 84.2144 87.5662C81.7154 87.2266 79.5399 86.15 77.3145 85.0489C77.2762 85.0299 77.238 85.011 77.1997 84.992C76.6453 84.6841 75.7876 84.1286 75.1537 83.6506C75.0514 83.5714 74.948 83.4926 74.8462 83.4108C74.8328 83.4004 74.8206 83.3897 74.8072 83.3793C68.576 78.415 62.3982 69.4113 58.2299 58.2714C54.1724 47.4259 52.8842 36.865 54.1537 29.0937C54.2384 28.5985 54.3309 28.1075 54.4342 27.6225C54.459 27.5076 54.4838 27.3928 54.5101 27.2789C54.6527 26.6709 54.851 25.943 55.0249 25.3804C55.1569 24.9622 55.2993 24.5578 55.4507 24.1663C56.2272 22.311 57.843 20.4253 59.5971 19.5754C63.3386 18.5764 64.9619 24.5442 65.4821 26.9661C65.8294 32.3316 66.069 37.7012 66.3279 43.0704C66.4567 45.6709 69.0535 47.0907 69.6502 44.8689C71.2965 38.7367 73.0122 32.6065 74.5526 26.4403C74.9573 24.8214 77.4216 25.6419 79.4848 27.7121C79.5305 27.7572 79.5528 27.7805 79.5984 27.8256C82.0951 30.1494 83.8653 33.7101 83.0865 37.145C82.0793 40.7618 81.0878 44.383 80.113 48.0085C79.1156 52.1863 81.0411 58.4512 85.2962 60.2597C88.012 61.2702 90.7577 62.2279 93.5585 62.9752C95.0303 63.3598 95.8372 65.2186 95.7371 67.7328C95.5947 70.3059 94.9262 76.0032 91.7672 76.7057L91.7679 76.7081Z" fill="#1A1A1A"/>
<path d="M91.7679 76.7081C86.7537 75.7414 81.9254 73.694 77.1998 71.8202C76.1582 71.3986 75.8726 72.8168 76.7945 73.8048L76.8454 73.8596C79.2171 76.4079 81.5881 78.9554 83.9039 81.5548C84.9272 82.6234 87.1392 87.3311 84.2144 87.5662C81.7154 87.2266 79.5399 86.15 77.3145 85.0489L77.1997 84.992C76.6453 84.6841 75.7876 84.1286 75.1537 83.6506C75.0514 83.5714 74.948 83.4926 74.8462 83.4108C74.8328 83.4004 74.8206 83.3897 74.8072 83.3793C68.576 78.415 62.3982 69.4113 58.2299 58.2714C54.1724 47.4259 52.8842 36.865 54.1537 29.0937C54.2384 28.5985 54.3309 28.1075 54.4342 27.6225C54.459 27.5076 54.4838 27.3928 54.5101 27.2789C54.6527 26.6709 54.851 25.943 55.0249 25.3804C55.1569 24.9622 55.2993 24.5578 55.4507 24.1663C56.2272 22.311 57.843 20.4253 59.5971 19.5754C63.3386 18.5764 64.9619 24.5442 65.4821 26.9661C65.8294 32.3316 66.069 37.7012 66.3279 43.0704C66.4567 45.6709 69.0535 47.0907 69.6502 44.8689C71.2965 38.7367 73.0122 32.6065 74.5526 26.4403C74.9573 24.8214 77.4216 25.6419 79.4848 27.7121C79.5305 27.7572 79.5528 27.7805 79.5984 27.8256C82.0951 30.1494 83.8653 33.7101 83.0865 37.145C82.0793 40.7618 81.0878 44.383 80.113 48.0085C79.1156 52.1863 81.0411 58.4512 85.2962 60.2597C88.012 61.2702 90.7577 62.2279 93.5585 62.9752C95.0303 63.3598 95.8372 65.2186 95.7371 67.7328C95.5947 70.3059 94.9262 76.0032 91.7672 76.7057L91.7679 76.7081Z" fill="#1A1A1A"/>
<path d="M161.776 48.6149C155.653 38.7632 135.412 40.2192 116.567 51.8673C97.7226 63.5155 87.4082 80.9442 93.5314 90.7953C99.6546 100.646 119.894 99.1899 138.74 87.5411C157.584 75.8947 167.899 58.466 161.776 48.6149ZM133.311 84.7163C126.449 89.2941 118.851 93.2511 110.316 94.32C106.458 94.641 99.4191 93.4844 96.6046 89.3355C94.0439 85.0258 95.9975 78.1837 97.9342 74.8422C102.545 67.5993 109.375 62.435 116.454 58.1995C121.557 55.6311 132.09 53.902 137.436 62.7195C142.144 70.4823 137.922 81.1133 133.311 84.7173L133.311 84.7163ZM141.845 60.7052C138.797 55.9097 139.596 49.9548 143.628 47.4052C147.662 44.855 155.049 45.6347 158.098 50.4296C161.146 55.2251 158.701 62.221 154.667 64.7701C150.633 67.3203 144.893 65.4997 141.845 60.7041L141.845 60.7052Z" fill="#1A1A1A"/>
<path d="M133.311 84.7163C126.449 89.2941 118.851 93.2511 110.316 94.32C106.458 94.641 99.4191 93.4844 96.6046 89.3355C94.0439 85.0258 95.9975 78.1837 97.9342 74.8422C102.545 67.5993 109.375 62.435 116.454 58.1995C121.557 55.6311 132.09 53.902 137.436 62.7195C142.144 70.4823 137.922 81.1133 133.311 84.7173L133.311 84.7163Z" fill="#1A1A1A"/>
<path d="M141.845 60.7052C138.797 55.9097 139.596 49.9548 143.628 47.4052C147.662 44.855 155.049 45.6347 158.098 50.4296C161.146 55.2251 158.701 62.221 154.667 64.7701C150.633 67.3203 144.893 65.4997 141.845 60.7041L141.845 60.7052Z" fill="#1A1A1A"/>
<path d="M139.432 101.86C121.057 89.4442 100.843 87.228 94.2811 96.9131C87.7201 106.597 97.2968 124.514 115.672 136.932C134.047 149.349 154.261 151.564 160.822 141.879C167.384 132.194 157.807 114.278 139.432 101.86ZM150.622 144.721C149.328 144.926 146.476 145.056 144.141 144.819C141.929 144.594 140.753 144.382 138.323 143.767C135.759 143.118 134.596 141.606 135.826 140.627C138.497 138.359 140.819 136.002 143.058 133.305C143.806 132.342 141.132 130.215 139.676 130.707C134.411 132.441 129.109 134.047 123.819 135.698C122.302 136.176 119.918 135.675 117.806 134.258C117.785 134.244 117.766 134.231 117.748 134.219C117.617 134.13 117.533 134.074 117.387 133.974C115.283 132.543 113.931 130.52 113.811 128.935C113.376 123.414 112.895 117.898 112.548 112.37C112.463 110.838 109.492 109.151 108.875 110.201C107.201 113.28 105.875 116.311 104.76 119.631C104.307 121.136 102.469 120.62 100.912 118.484C99.4392 116.461 98.8052 115.451 97.7745 113.486C96.685 111.409 95.7464 108.715 95.4549 107.439C94.4926 99.8952 97.0761 96.0809 104.446 94.1672C105.74 93.962 108.593 93.8322 110.928 94.0695C115.605 94.7277 119.861 95.9576 124.264 97.6302C126.346 98.4849 127.685 99.9324 127.621 101.186C127.425 105.575 127.579 109.956 127.751 114.342C127.816 115.843 130.776 117.844 132.195 117.345C136.326 115.874 140.481 114.416 144.466 112.57C145.608 112.042 147.451 112.746 149.021 114.359C152.214 117.82 154.949 121.322 157.294 125.402C158.384 127.479 159.322 130.173 159.614 131.449C160.576 138.993 157.992 142.807 150.622 144.721Z" fill="#1A1A1A"/>
<path d="M150.622 144.721C149.328 144.926 146.476 145.056 144.141 144.819C141.929 144.594 140.753 144.382 138.323 143.767C135.759 143.118 134.596 141.606 135.826 140.627C138.497 138.359 140.819 136.002 143.058 133.305C143.806 132.342 141.132 130.215 139.676 130.707C134.411 132.441 129.109 134.047 123.819 135.698C122.302 136.176 119.918 135.675 117.806 134.258L117.748 134.219C117.617 134.13 117.533 134.074 117.387 133.974C115.283 132.543 113.931 130.52 113.811 128.935C113.376 123.414 112.895 117.898 112.548 112.37C112.463 110.838 109.492 109.151 108.875 110.201C107.201 113.28 105.875 116.311 104.76 119.631C104.307 121.136 102.469 120.62 100.912 118.484C99.4392 116.461 98.8052 115.451 97.7745 113.486C96.685 111.409 95.7464 108.715 95.4549 107.439C94.4926 99.8952 97.0761 96.0809 104.446 94.1672C105.74 93.962 108.593 93.8322 110.928 94.0695C115.605 94.7277 119.861 95.9576 124.264 97.6302C126.346 98.4849 127.685 99.9324 127.621 101.186C127.425 105.575 127.579 109.956 127.751 114.342C127.816 115.843 130.776 117.844 132.195 117.345C136.326 115.874 140.481 114.416 144.466 112.57C145.608 112.042 147.451 112.746 149.021 114.359C152.214 117.82 154.949 121.322 157.294 125.402C158.384 127.479 159.322 130.173 159.614 131.449C160.576 138.993 157.992 142.807 150.622 144.721Z" fill="#1A1A1A"/>
</svg>
