<svg width="166" height="166" viewBox="0 0 166 166" fill="none" xmlns="http://www.w3.org/2000/svg">
<path d="M2.56447 70.8554C5.08531 59.4605 24.5997 54.0673 46.152 58.8104C49.2353 59.4889 52.1931 60.3381 54.991 61.3286C54.7977 60.8422 54.6084 60.3515 54.4233 59.8567C46.6633 39.1138 49.2136 19.0062 60.1187 14.9432C71.0241 10.8814 86.1549 24.4037 93.9145 45.1454L93.9161 45.1463C96.9063 53.1394 98.3656 61.0384 98.4057 67.9614C102.714 62.2403 108.942 56.5807 116.567 51.8675C135.412 40.2193 155.653 38.7633 161.776 48.615C167.899 58.4661 157.584 75.8948 138.74 87.5413C134.136 90.3873 129.448 92.625 124.903 94.2379C129.687 96.0596 134.622 98.6106 139.432 101.86C157.807 114.278 167.384 132.194 160.822 141.879C154.261 151.564 134.047 149.35 115.672 136.932C97.2966 124.514 87.7199 106.597 94.281 96.9134C94.9794 95.8825 95.8324 94.9865 96.8215 94.2233C95.4843 93.2929 94.3741 92.1513 93.5314 90.7954C92.9109 89.7972 92.4592 88.7211 92.168 87.581C91.007 88.673 89.6895 89.5114 88.2203 90.0586C85.6458 91.0175 82.8358 90.9964 79.9427 90.1317C75.5675 100.031 57.1647 104.509 37.023 100.076C15.4707 95.3331 0.0436225 82.2504 2.56447 70.8554Z" fill="#1A1A1A"/>
</svg>
